# Blender v2.80 (sub 75) OBJ File: ''
# www.blender.org
mtllib boxmirror.mtl
o Plane_Plane.001
v 0.006283 -4.211273 -5.494569
v 0.005846 -3.801474 5.904368
v -0.005846 7.187656 -5.904368
v -0.006283 7.597456 5.494569
vt 1.000000 0.000000
vt 0.000000 1.000000
vt 0.000000 0.000000
vt 1.000000 1.000000
vn -1.0000 -0.0011 -0.0000
usemtl None
s off
f 2/1/1 3/2/1 1/3/1
f 2/1/1 4/4/1 3/2/1
o Cube_Cube.002
v -5.297823 -0.506737 0.795990
v -5.297823 1.493263 0.795990
v -5.297823 -0.506737 -1.204010
v -5.297823 1.493263 -1.204010
v -3.297823 -0.506737 0.795990
v -3.297823 1.493263 0.795990
v -3.297823 -0.506737 -1.204010
v -3.297823 1.493263 -1.204010
vt 0.625000 0.000000
vt 0.375000 0.250000
vt 0.375000 0.000000
vt 0.625000 0.250000
vt 0.375000 0.500000
vt 0.625000 0.500000
vt 0.375000 0.750000
vt 0.625000 0.750000
vt 0.375000 1.000000
vt 0.125000 0.750000
vt 0.125000 0.500000
vt 0.875000 0.500000
vt 0.625000 1.000000
vt 0.875000 0.750000
vn -1.0000 0.0000 0.0000
vn 0.0000 0.0000 -1.0000
vn 1.0000 0.0000 0.0000
vn 0.0000 0.0000 1.0000
vn 0.0000 -1.0000 0.0000
vn 0.0000 1.0000 0.0000
usemtl None
s off
f 6/5/2 7/6/2 5/7/2
f 8/8/3 11/9/3 7/6/3
f 12/10/4 9/11/4 11/9/4
f 10/12/5 5/13/5 9/11/5
f 11/9/6 5/14/6 7/15/6
f 8/16/7 10/12/7 12/10/7
f 6/5/2 8/8/2 7/6/2
f 8/8/3 12/10/3 11/9/3
f 12/10/4 10/12/4 9/11/4
f 10/12/5 6/17/5 5/13/5
f 11/9/6 9/11/6 5/14/6
f 8/16/7 6/18/7 10/12/7
