# Blender v2.80 (sub 75) OBJ File: ''
# www.blender.org
mtllib mirrors.mtl
o Cube_Cube.002
v -11.371422 -0.506737 0.795990
v -11.371422 1.493263 0.795990
v -11.371422 -0.506737 -1.204010
v -11.371422 1.493263 -1.204010
v -9.371422 -0.506737 0.795990
v -9.371422 1.493263 0.795990
v -9.371422 -0.506737 -1.204010
v -9.371422 1.493263 -1.204010
vt 0.625000 0.000000
vt 0.375000 0.250000
vt 0.375000 0.000000
vt 0.625000 0.250000
vt 0.375000 0.500000
vt 0.625000 0.500000
vt 0.375000 0.750000
vt 0.625000 0.750000
vt 0.375000 1.000000
vt 0.125000 0.750000
vt 0.125000 0.500000
vt 0.875000 0.500000
vt 0.625000 1.000000
vt 0.875000 0.750000
vn -1.0000 0.0000 0.0000
vn 0.0000 0.0000 -1.0000
vn 1.0000 0.0000 0.0000
vn 0.0000 0.0000 1.0000
vn 0.0000 -1.0000 0.0000
vn 0.0000 1.0000 0.0000
usemtl Material.002
s off
f 2/1/1 3/2/1 1/3/1
f 4/4/2 7/5/2 3/2/2
f 8/6/3 5/7/3 7/5/3
f 6/8/4 1/9/4 5/7/4
f 7/5/5 1/10/5 3/11/5
f 4/12/6 6/8/6 8/6/6
f 2/1/1 4/4/1 3/2/1
f 4/4/2 8/6/2 7/5/2
f 8/6/3 6/8/3 5/7/3
f 6/8/4 2/13/4 1/9/4
f 7/5/5 5/7/5 1/10/5
f 4/12/6 2/14/6 6/8/6
o 14319_Artik_Mirror-Black_v1_l1.001
v 0.249923 6.465367 -6.470160
v -0.207282 -6.466875 -6.470160
v -0.207284 -6.466875 6.470160
v 0.249921 6.465367 6.470160
v 0.584484 7.849938 7.865687
v 0.584507 7.849937 -7.865687
v -0.429787 7.885796 -7.865687
v -0.429809 7.885797 7.865687
v 0.028689 -7.871616 -7.865687
v -0.985604 -7.835757 -7.865687
v 0.028666 -7.871615 7.865687
v -0.985627 -7.835756 7.865687
v 0.295059 6.844609 -6.850760
v 0.295057 6.844609 6.850760
v -0.189041 -6.848357 -6.850760
v -0.189043 -6.848357 6.850760
v 0.390144 6.841248 -6.850760
v 0.390142 6.841248 6.850760
v -0.093955 -6.851719 -6.850760
v -0.093957 -6.851719 6.850760
vt -13.000000 -13.000000
vt -12.250000 13.250000
vt -13.000000 14.000000
vt 14.000000 -13.000000
vt -12.250000 -12.250000
vt 14.000000 14.000000
vt 13.250000 -12.250000
vt 13.250000 13.250000
vt -15.000000 -15.000000
vt -15.000000 16.000000
vt -15.000000 16.000000
vt 16.000000 -15.000000
vt -15.000000 -15.000000
vt 16.000000 16.000000
vt 16.000000 -15.000000
vt 16.000000 16.000000
vt -13.000000 -13.000000
vt -13.000000 14.000000
vt 14.000000 -13.000000
vt 14.000000 14.000000
vn -0.9369 0.3495 -0.0000
vn -0.9481 0.0335 -0.3162
vn -0.9593 -0.2825 -0.0000
vn -0.9481 0.0335 0.3162
vn -0.9994 0.0353 -0.0000
vn 0.0353 0.9994 0.0000
vn 0.0000 0.0000 -1.0000
vn -0.0353 -0.9994 0.0000
vn -0.0000 0.0000 1.0000
vn -0.8207 -0.5714 -0.0000
vn -0.7995 0.0283 0.6000
vn -0.7783 0.6279 -0.0000
vn -0.7995 0.0283 -0.6000
vn 0.9994 -0.0353 0.0000
usemtl Silver_mat.001
s off
f 25/15/7 12/16/7 26/17/7
f 27/18/8 9/19/8 25/15/8
f 28/20/9 10/21/9 27/18/9
f 26/17/10 11/22/10 28/20/10
f 25/15/7 9/19/7 12/16/7
f 27/18/8 10/21/8 9/19/8
f 28/20/9 11/22/9 10/21/9
f 26/17/10 12/16/10 11/22/10
s 1
f 10/21/11 12/16/11 9/19/11
f 10/21/11 11/22/11 12/16/11
usemtl Ebony_mat.001
s off
f 14/23/12 16/24/12 13/25/12
f 17/26/13 15/27/13 14/23/13
f 19/28/14 18/29/14 17/26/14
f 13/25/15 20/30/15 19/28/15
f 16/24/16 21/31/16 22/32/16
f 18/29/17 21/31/17 15/27/17
f 20/30/18 23/33/18 18/29/18
f 16/24/19 24/34/19 20/30/19
f 21/31/14 26/17/14 22/32/14
f 23/33/15 25/15/15 21/31/15
f 24/34/12 27/18/12 23/33/12
f 22/32/13 28/20/13 24/34/13
f 17/26/20 13/25/20 19/28/20
f 14/23/12 15/27/12 16/24/12
f 17/26/13 18/29/13 15/27/13
f 19/28/14 20/30/14 18/29/14
f 13/25/15 16/24/15 20/30/15
f 16/24/16 15/27/16 21/31/16
f 18/29/17 23/33/17 21/31/17
f 20/30/18 24/34/18 23/33/18
f 16/24/19 22/32/19 24/34/19
f 21/31/14 25/15/14 26/17/14
f 23/33/15 27/18/15 25/15/15
f 24/34/12 28/20/12 27/18/12
f 22/32/13 26/17/13 28/20/13
f 17/26/20 14/23/20 13/25/20
o 14319_Artik_Mirror-Black_v1_l1.000_14319_Artik_Mirror-Black_v1_l1.002
v -10.050615 6.465367 17.403751
v -9.776386 -6.466875 17.037916
v -20.130632 -6.466875 9.276377
v -20.404861 6.465367 9.642211
v -21.722168 7.849938 9.072883
v -9.134662 7.849937 18.508499
v -8.526294 7.885796 17.696909
v -21.113800 7.885797 8.261292
v -8.801285 -7.871616 18.063759
v -8.192917 -7.835757 17.252169
v -21.388790 -7.871615 8.628143
v -20.780422 -7.835756 7.816552
v -9.773149 6.844609 17.668148
v -20.736473 6.844609 9.450045
v -9.482790 -6.848357 17.280794
v -20.446112 -6.848357 9.062691
v -9.830181 6.841248 17.744232
v -20.793505 6.841248 9.526128
v -9.539822 -6.851719 17.356876
v -20.503143 -6.851719 9.138774
vt -13.000000 -13.000000
vt -12.250000 13.250000
vt -13.000000 14.000000
vt 14.000000 -13.000000
vt -12.250000 -12.250000
vt 14.000000 14.000000
vt 13.250000 -12.250000
vt 13.250000 13.250000
vt -15.000000 -15.000000
vt -15.000000 16.000000
vt -15.000000 16.000000
vt 16.000000 -15.000000
vt -15.000000 -15.000000
vt 16.000000 16.000000
vt 16.000000 -15.000000
vt 16.000000 16.000000
vt -13.000000 -13.000000
vt -13.000000 14.000000
vt 14.000000 -13.000000
vt 14.000000 14.000000
vn 0.5620 0.3495 -0.7497
vn 0.8217 0.0335 -0.5690
vn 0.5754 -0.2825 -0.7676
vn 0.3157 0.0335 -0.9483
vn 0.5994 0.0353 -0.7997
vn -0.0212 0.9994 0.0283
vn 0.8002 -0.0000 0.5998
vn 0.0212 -0.9994 -0.0283
vn -0.8002 0.0000 -0.5998
vn 0.4923 -0.5714 -0.6567
vn -0.0005 0.0283 -0.9996
vn 0.4668 0.6279 -0.6228
vn 0.9596 0.0283 -0.2798
vn -0.8001 -0.0000 -0.5998
vn -0.5994 -0.0353 0.7997
usemtl Silver_mat.001
s off
f 45/35/21 32/36/21 46/37/21
f 47/38/22 29/39/22 45/35/22
f 48/40/23 30/41/23 47/38/23
f 46/37/24 31/42/24 48/40/24
f 45/35/21 29/39/21 32/36/21
f 47/38/22 30/41/22 29/39/22
f 48/40/23 31/42/23 30/41/23
f 46/37/24 32/36/24 31/42/24
s 1
f 30/41/25 32/36/25 29/39/25
f 30/41/25 31/42/25 32/36/25
usemtl Ebony_mat.001
s off
f 34/43/26 36/44/26 33/45/26
f 37/46/27 35/47/27 34/43/27
f 39/48/28 38/49/28 37/46/28
f 33/45/29 40/50/29 39/48/29
f 36/44/30 41/51/30 42/52/30
f 38/49/31 41/51/31 35/47/31
f 40/50/32 43/53/32 38/49/32
f 36/44/33 44/54/33 40/50/33
f 41/51/28 46/37/28 42/52/28
f 43/53/34 45/35/34 41/51/34
f 44/54/26 47/38/26 43/53/26
f 42/52/27 48/40/27 44/54/27
f 37/46/35 33/45/35 39/48/35
f 34/43/26 35/47/26 36/44/26
f 37/46/27 38/49/27 35/47/27
f 39/48/28 40/50/28 38/49/28
f 33/45/29 36/44/29 40/50/29
f 36/44/30 35/47/30 41/51/30
f 38/49/31 43/53/31 41/51/31
f 40/50/32 44/54/32 43/53/32
f 36/44/33 42/52/33 44/54/33
f 41/51/28 45/35/28 46/37/28
f 43/53/29 47/38/29 45/35/29
f 44/54/26 48/40/26 47/38/26
f 42/52/27 46/37/27 48/40/27
f 37/46/35 34/43/35 33/45/35
