# Blender v2.78 (sub 0) OBJ File: 'masterscene.blend'
# www.blender.org
mtllib mirror4.mtl
o Cube_Cube.001
v -0.282994 0.225686 1.555447
v -0.282994 0.864003 1.555447
v -0.282994 0.225686 0.917129
v -0.282994 0.864003 0.917129
v 0.355324 0.225686 1.555447
v 0.355324 0.864003 1.555447
v 0.355324 0.225686 0.917129
v 0.355324 0.864003 0.917129
vn -1.0000 0.0000 0.0000
vn 0.0000 0.0000 -1.0000
vn 1.0000 0.0000 0.0000
vn 0.0000 0.0000 1.0000
vn 0.0000 -1.0000 0.0000
vn 0.0000 1.0000 0.0000
usemtl glassBox
s off
f 1//1 2//1 4//1 3//1
f 3//2 4//2 8//2 7//2
f 7//3 8//3 6//3 5//3
f 5//4 6//4 2//4 1//4
f 3//5 7//5 5//5 1//5
f 8//6 4//6 2//6 6//6
o Cube_Cube.000
v 0.092798 0.283859 -0.393532
v 0.092798 0.702623 -0.393532
v 0.092798 0.702623 -0.812296
v 0.092798 0.283859 -0.812296
v 0.511562 0.702623 -0.812296
v 0.511562 0.283859 -0.812296
v 0.511562 0.702623 -0.393532
v 0.511562 0.283859 -0.393532
vn -1.0000 0.0000 0.0000
vn 0.0000 0.0000 -1.0000
vn 1.0000 0.0000 0.0000
vn 0.0000 -0.0000 1.0000
vn 0.0000 -1.0000 -0.0000
vn 0.0000 1.0000 0.0000
usemtl Material.004
s 1
f 9//7 10//7 11//7 12//7
f 12//8 11//8 13//8 14//8
f 14//9 13//9 15//9 16//9
f 16//10 15//10 10//10 9//10
f 12//11 14//11 16//11 9//11
f 13//12 11//12 10//12 15//12
o Plane.003
v -0.897598 -0.259910 8.360435
v -0.897598 -0.259908 -8.282769
v -0.897598 5.147989 -8.282768
v -0.897598 5.147986 8.360435
vn 1.0000 0.0000 0.0000
usemtl MirrorMat
s 1
f 17//13 18//13 19//13 20//13
o Cone
v 0.631650 0.265564 0.194190
v 0.631650 0.898266 0.510541
v 0.693367 0.265564 0.200268
v 0.752713 0.265564 0.218270
v 0.807406 0.265564 0.247504
v 0.855344 0.265564 0.286847
v 0.894687 0.265564 0.334786
v 0.923921 0.265564 0.389478
v 0.941923 0.265564 0.448824
v 0.948001 0.265564 0.510541
v 0.941923 0.265564 0.572258
v 0.923921 0.265564 0.631603
v 0.894687 0.265564 0.686296
v 0.855344 0.265564 0.734235
v 0.807405 0.265564 0.773577
v 0.752712 0.265564 0.802811
v 0.693367 0.265564 0.820813
v 0.631650 0.265564 0.826892
v 0.569933 0.265564 0.820813
v 0.510588 0.265564 0.802811
v 0.455895 0.265564 0.773577
v 0.407956 0.265564 0.734235
v 0.368614 0.265564 0.686296
v 0.339380 0.265564 0.631603
v 0.321377 0.265564 0.572258
v 0.315299 0.265564 0.510540
v 0.321378 0.265564 0.448823
v 0.339380 0.265564 0.389478
v 0.368614 0.265564 0.334785
v 0.407956 0.265564 0.286846
v 0.455895 0.265564 0.247504
v 0.510588 0.265564 0.218270
v 0.569934 0.265564 0.200268
vn 0.0877 0.4455 -0.8910
vn 0.2599 0.4455 -0.8567
vn 0.4220 0.4455 -0.7896
vn 0.5680 0.4455 -0.6921
vn 0.6921 0.4455 -0.5680
vn 0.7896 0.4455 -0.4220
vn 0.8567 0.4455 -0.2599
vn 0.8910 0.4455 -0.0877
vn 0.8910 0.4455 0.0877
vn 0.8567 0.4455 0.2599
vn 0.7896 0.4455 0.4220
vn 0.6921 0.4455 0.5680
vn 0.5680 0.4455 0.6921
vn 0.4220 0.4455 0.7896
vn 0.2599 0.4455 0.8567
vn 0.0878 0.4455 0.8910
vn -0.0878 0.4455 0.8910
vn -0.2599 0.4455 0.8567
vn -0.4220 0.4455 0.7896
vn -0.5680 0.4455 0.6921
vn -0.6921 0.4455 0.5680
vn -0.7896 0.4455 0.4220
vn -0.8567 0.4455 0.2599
vn -0.8910 0.4455 0.0877
vn -0.8910 0.4455 -0.0878
vn -0.8567 0.4455 -0.2599
vn -0.7896 0.4455 -0.4220
vn -0.6921 0.4455 -0.5680
vn -0.5680 0.4455 -0.6921
vn -0.4220 0.4455 -0.7896
vn -0.2599 0.4455 -0.8567
vn -0.0877 0.4455 -0.8910
vn 0.0000 -1.0000 -0.0000
usemtl Material.006
s 1
f 21//14 22//14 23//14
f 23//15 22//15 24//15
f 24//16 22//16 25//16
f 25//17 22//17 26//17
f 26//18 22//18 27//18
f 27//19 22//19 28//19
f 28//20 22//20 29//20
f 29//21 22//21 30//21
f 30//22 22//22 31//22
f 31//23 22//23 32//23
f 32//24 22//24 33//24
f 33//25 22//25 34//25
f 34//26 22//26 35//26
f 35//27 22//27 36//27
f 36//28 22//28 37//28
f 37//29 22//29 38//29
f 38//30 22//30 39//30
f 39//31 22//31 40//31
f 40//32 22//32 41//32
f 41//33 22//33 42//33
f 42//34 22//34 43//34
f 43//35 22//35 44//35
f 44//36 22//36 45//36
f 45//37 22//37 46//37
f 46//38 22//38 47//38
f 47//39 22//39 48//39
f 48//40 22//40 49//40
f 49//41 22//41 50//41
f 50//42 22//42 51//42
f 51//43 22//43 52//43
f 52//44 22//44 53//44
f 53//45 22//45 21//45
f 21//46 23//46 24//46 25//46 26//46 27//46 28//46 29//46 30//46 31//46 32//46 33//46 34//46 35//46 36//46 37//46 38//46 39//46 40//46 41//46 42//46 43//46 44//46 45//46 46//46 47//46 48//46 49//46 50//46 51//46 52//46 53//46
o Plane.002
v -8.142078 -0.257853 -2.004407
v 8.044796 -0.257853 -2.004407
v 8.044796 5.107269 -2.004406
v -8.142078 5.107269 -2.004406
vn 0.0000 -0.0000 1.0000
usemtl MirrorMat
s 1
f 54//47 55//47 56//47 57//47
o Plane.001
v -7.882391 -0.000001 7.882391
v 7.882391 -0.000001 7.882391
v 7.882391 0.000001 -7.882391
v -7.882391 0.000001 -7.882391
vn 0.0000 1.0000 0.0000
usemtl Material.005
s 1
f 58//48 59//48 60//48 61//48
o Cube.001_Cube.003
v 2.037483 -0.249489 -0.082922
v 2.037483 0.388829 -0.082922
v 2.037483 -0.249489 -0.721239
v 2.037483 0.388829 -0.721239
v 2.675801 -0.249489 -0.082922
v 2.675801 0.388829 -0.082922
v 2.675801 -0.249489 -0.721239
v 2.675801 0.388829 -0.721239
vn -1.0000 0.0000 0.0000
vn 0.0000 0.0000 -1.0000
vn 1.0000 0.0000 0.0000
vn 0.0000 0.0000 1.0000
vn 0.0000 -1.0000 0.0000
vn 0.0000 1.0000 0.0000
usemtl glassBox.002
s off
f 62//49 63//49 65//49 64//49
f 64//50 65//50 69//50 68//50
f 68//51 69//51 67//51 66//51
f 66//52 67//52 63//52 62//52
f 64//53 68//53 66//53 62//53
f 69//54 65//54 63//54 67//54
o Cube.002_Cube.004
v 0.758498 -0.217340 1.851815
v 0.758498 0.420978 1.851815
v 0.758498 -0.217340 1.213497
v 0.758498 0.420978 1.213497
v 1.396816 -0.217340 1.851815
v 1.396816 0.420978 1.851815
v 1.396816 -0.217340 1.213497
v 1.396816 0.420978 1.213497
vn -1.0000 0.0000 0.0000
vn 0.0000 0.0000 -1.0000
vn 1.0000 0.0000 0.0000
vn 0.0000 0.0000 1.0000
vn 0.0000 -1.0000 0.0000
vn 0.0000 1.0000 0.0000
usemtl glassBox.003
s off
f 70//55 71//55 73//55 72//55
f 72//56 73//56 77//56 76//56
f 76//57 77//57 75//57 74//57
f 74//58 75//58 71//58 70//58
f 72//59 76//59 74//59 70//59
f 77//60 73//60 71//60 75//60
o Cube.003_Cube.005
v 0.949656 0.314586 -1.680746
v 0.949656 0.952904 -1.680746
v 0.949656 0.314586 -2.319063
v 0.949656 0.952904 -2.319063
v 1.587974 0.314586 -1.680746
v 1.587974 0.952904 -1.680746
v 1.587974 0.314586 -2.319063
v 1.587974 0.952904 -2.319063
vn -1.0000 0.0000 0.0000
vn 0.0000 0.0000 -1.0000
vn 1.0000 0.0000 0.0000
vn 0.0000 0.0000 1.0000
vn 0.0000 -1.0000 0.0000
vn 0.0000 1.0000 0.0000
usemtl glassBox.004
s off
f 78//61 79//61 81//61 80//61
f 80//62 81//62 85//62 84//62
f 84//63 85//63 83//63 82//63
f 82//64 83//64 79//64 78//64
f 80//65 84//65 82//65 78//65
f 85//66 81//66 79//66 83//66
o Cube.004_Cube.006
v 0.949656 1.431379 -1.680746
v 0.949656 2.069696 -1.680746
v 0.949656 1.431379 -2.319063
v 0.949656 2.069696 -2.319063
v 1.587974 1.431379 -1.680746
v 1.587974 2.069696 -1.680746
v 1.587974 1.431379 -2.319063
v 1.587974 2.069696 -2.319063
vn -1.0000 0.0000 0.0000
vn 0.0000 0.0000 -1.0000
vn 1.0000 0.0000 0.0000
vn 0.0000 0.0000 1.0000
vn 0.0000 -1.0000 0.0000
vn 0.0000 1.0000 0.0000
usemtl glassBox.005
s off
f 86//67 87//67 89//67 88//67
f 88//68 89//68 93//68 92//68
f 92//69 93//69 91//69 90//69
f 90//70 91//70 87//70 86//70
f 88//71 92//71 90//71 86//71
f 93//72 89//72 87//72 91//72
o Cube.005_Cube.007
v 2.014431 0.314586 -1.680746
v 2.014431 0.952904 -1.680746
v 2.014431 0.314586 -2.319063
v 2.014431 0.952904 -2.319063
v 2.652748 0.314586 -1.680746
v 2.652748 0.952904 -1.680746
v 2.652748 0.314586 -2.319063
v 2.652748 0.952904 -2.319063
vn -1.0000 0.0000 0.0000
vn 0.0000 0.0000 -1.0000
vn 1.0000 0.0000 0.0000
vn 0.0000 0.0000 1.0000
vn 0.0000 -1.0000 0.0000
vn 0.0000 1.0000 0.0000
usemtl glassBox.006
s off
f 94//73 95//73 97//73 96//73
f 96//74 97//74 101//74 100//74
f 100//75 101//75 99//75 98//75
f 98//76 99//76 95//76 94//76
f 96//77 100//77 98//77 94//77
f 101//78 97//78 95//78 99//78
o Cube.006_Cube.008
v -0.381061 0.314586 -1.680746
v -0.381061 0.952904 -1.680746
v -0.381061 0.314586 -2.319063
v -0.381061 0.952904 -2.319063
v 0.257257 0.314586 -1.680746
v 0.257257 0.952904 -1.680746
v 0.257257 0.314586 -2.319063
v 0.257257 0.952904 -2.319063
vn -1.0000 0.0000 0.0000
vn 0.0000 0.0000 -1.0000
vn 1.0000 0.0000 0.0000
vn 0.0000 0.0000 1.0000
vn 0.0000 -1.0000 0.0000
vn 0.0000 1.0000 0.0000
usemtl glassBox.007
s off
f 102//79 103//79 105//79 104//79
f 104//80 105//80 109//80 108//80
f 108//81 109//81 107//81 106//81
f 106//82 107//82 103//82 102//82
f 104//83 108//83 106//83 102//83
f 109//84 105//84 103//84 107//84
o Cube.007_Cube.009
v 1.977255 1.441265 -1.680746
v 1.977255 2.079582 -1.680746
v 1.977255 1.441265 -2.319063
v 1.977255 2.079582 -2.319063
v 2.615572 1.441265 -1.680746
v 2.615572 2.079582 -1.680746
v 2.615572 1.441265 -2.319063
v 2.615572 2.079582 -2.319063
vn -1.0000 0.0000 0.0000
vn 0.0000 0.0000 -1.0000
vn 1.0000 0.0000 0.0000
vn 0.0000 0.0000 1.0000
vn 0.0000 -1.0000 0.0000
vn 0.0000 1.0000 0.0000
usemtl glassBox.008
s off
f 110//85 111//85 113//85 112//85
f 112//86 113//86 117//86 116//86
f 116//87 117//87 115//87 114//87
f 114//88 115//88 111//88 110//88
f 112//89 116//89 114//89 110//89
f 117//90 113//90 111//90 115//90
o Cube.008_Cube.010
v -0.344625 1.441265 -1.680746
v -0.344625 2.079582 -1.680746
v -0.344625 1.441265 -2.319063
v -0.344625 2.079582 -2.319063
v 0.293693 1.441265 -1.680746
v 0.293693 2.079582 -1.680746
v 0.293693 1.441265 -2.319063
v 0.293693 2.079582 -2.319063
vn -1.0000 0.0000 0.0000
vn 0.0000 0.0000 -1.0000
vn 1.0000 0.0000 0.0000
vn 0.0000 0.0000 1.0000
vn 0.0000 -1.0000 0.0000
vn 0.0000 1.0000 0.0000
usemtl glassBox.009
s off
f 118//91 119//91 121//91 120//91
f 120//92 121//92 125//92 124//92
f 124//93 125//93 123//93 122//93
f 122//94 123//94 119//94 118//94
f 120//95 124//95 122//95 118//95
f 125//96 121//96 119//96 123//96
o Cube.009_Cube.011
v -0.344625 2.382238 -1.680746
v -0.344625 3.020556 -1.680746
v -0.344625 2.382238 -2.319063
v -0.344625 3.020556 -2.319063
v 0.293693 2.382238 -1.680746
v 0.293693 3.020556 -1.680746
v 0.293693 2.382238 -2.319063
v 0.293693 3.020556 -2.319063
vn -1.0000 0.0000 0.0000
vn 0.0000 0.0000 -1.0000
vn 1.0000 0.0000 0.0000
vn 0.0000 0.0000 1.0000
vn 0.0000 -1.0000 0.0000
vn 0.0000 1.0000 0.0000
usemtl glassBox.010
s off
f 126//97 127//97 129//97 128//97
f 128//98 129//98 133//98 132//98
f 132//99 133//99 131//99 130//99
f 130//100 131//100 127//100 126//100
f 128//101 132//101 130//101 126//101
f 133//102 129//102 127//102 131//102
o Cube.010_Cube.012
v 0.974117 2.382238 -1.680746
v 0.974117 3.020556 -1.680746
v 0.974117 2.382238 -2.319063
v 0.974117 3.020556 -2.319063
v 1.612434 2.382238 -1.680746
v 1.612434 3.020556 -1.680746
v 1.612434 2.382238 -2.319063
v 1.612434 3.020556 -2.319063
vn -1.0000 0.0000 0.0000
vn 0.0000 0.0000 -1.0000
vn 1.0000 0.0000 0.0000
vn 0.0000 0.0000 1.0000
vn 0.0000 -1.0000 0.0000
vn 0.0000 1.0000 0.0000
usemtl glassBox.011
s off
f 134//103 135//103 137//103 136//103
f 136//104 137//104 141//104 140//104
f 140//105 141//105 139//105 138//105
f 138//106 139//106 135//106 134//106
f 136//107 140//107 138//107 134//107
f 141//108 137//108 135//108 139//108
o Cube.011_Cube.013
v 2.024387 2.382238 -1.680746
v 2.024387 3.020556 -1.680746
v 2.024387 2.382238 -2.319063
v 2.024387 3.020556 -2.319063
v 2.662705 2.382238 -1.680746
v 2.662705 3.020556 -1.680746
v 2.662705 2.382238 -2.319063
v 2.662705 3.020556 -2.319063
vn -1.0000 0.0000 0.0000
vn 0.0000 0.0000 -1.0000
vn 1.0000 0.0000 0.0000
vn 0.0000 0.0000 1.0000
vn 0.0000 -1.0000 0.0000
vn 0.0000 1.0000 0.0000
usemtl glassBox.012
s off
f 142//109 143//109 145//109 144//109
f 144//110 145//110 149//110 148//110
f 148//111 149//111 147//111 146//111
f 146//112 147//112 143//112 142//112
f 144//113 148//113 146//113 142//113
f 149//114 145//114 143//114 147//114
o Cube.012_Cube.014
v 2.024387 3.532014 -1.680746
v 2.024387 4.170332 -1.680746
v 2.024387 3.532014 -2.319063
v 2.024387 4.170332 -2.319063
v 2.662705 3.532014 -1.680746
v 2.662705 4.170332 -1.680746
v 2.662705 3.532014 -2.319063
v 2.662705 4.170332 -2.319063
vn -1.0000 0.0000 0.0000
vn 0.0000 0.0000 -1.0000
vn 1.0000 0.0000 0.0000
vn 0.0000 0.0000 1.0000
vn 0.0000 -1.0000 0.0000
vn 0.0000 1.0000 0.0000
usemtl glassBox.013
s off
f 150//115 151//115 153//115 152//115
f 152//116 153//116 157//116 156//116
f 156//117 157//117 155//117 154//117
f 154//118 155//118 151//118 150//118
f 152//119 156//119 154//119 150//119
f 157//120 153//120 151//120 155//120
o Cube.013_Cube.015
v 1.020182 3.532487 -1.680746
v 1.020182 4.170805 -1.680746
v 1.020182 3.532487 -2.319063
v 1.020182 4.170805 -2.319063
v 1.658500 3.532487 -1.680746
v 1.658500 4.170805 -1.680746
v 1.658500 3.532487 -2.319063
v 1.658500 4.170805 -2.319063
vn -1.0000 0.0000 0.0000
vn 0.0000 0.0000 -1.0000
vn 1.0000 0.0000 0.0000
vn 0.0000 0.0000 1.0000
vn 0.0000 -1.0000 0.0000
vn 0.0000 1.0000 0.0000
usemtl glassBox.014
s off
f 158//121 159//121 161//121 160//121
f 160//122 161//122 165//122 164//122
f 164//123 165//123 163//123 162//123
f 162//124 163//124 159//124 158//124
f 160//125 164//125 162//125 158//125
f 165//126 161//126 159//126 163//126
o Cube.014_Cube.016
v -0.263961 3.532487 -1.680746
v -0.263961 4.170805 -1.680746
v -0.263961 3.532487 -2.319063
v -0.263961 4.170805 -2.319063
v 0.374356 3.532487 -1.680746
v 0.374356 4.170805 -1.680746
v 0.374356 3.532487 -2.319063
v 0.374356 4.170805 -2.319063
vn -1.0000 0.0000 0.0000
vn 0.0000 0.0000 -1.0000
vn 1.0000 0.0000 0.0000
vn 0.0000 0.0000 1.0000
vn 0.0000 -1.0000 0.0000
vn 0.0000 1.0000 0.0000
usemtl glassBox.015
s off
f 166//127 167//127 169//127 168//127
f 168//128 169//128 173//128 172//128
f 172//129 173//129 171//129 170//129
f 170//130 171//130 167//130 166//130
f 168//131 172//131 170//131 166//131
f 173//132 169//132 167//132 171//132
o Cube_Cube.001_Cube_Cube.002
v 1.313580 0.369573 -0.467497
v 1.313580 0.788337 -0.467497
v 1.313580 0.788337 -0.886261
v 1.313580 0.369573 -0.886262
v 1.732344 0.788337 -0.886261
v 1.732344 0.369573 -0.886262
v 1.732344 0.788337 -0.467497
v 1.732344 0.369573 -0.467497
vn -1.0000 0.0000 0.0000
vn 0.0000 0.0000 -1.0000
vn 1.0000 -0.0000 0.0000
vn 0.0000 -0.0000 1.0000
vn 0.0000 -1.0000 -0.0000
vn 0.0000 1.0000 0.0000
usemtl Material.007
s 1
f 174//133 175//133 176//133 177//133
f 177//134 176//134 178//134 179//134
f 179//135 178//135 180//135 181//135
f 181//136 180//136 175//136 174//136
f 177//137 179//137 181//137 174//137
f 178//138 176//138 175//138 180//138
o Cube_Cube.002_Cube_Cube.003
v -0.931117 0.235592 2.771060
v -0.931117 0.654356 2.771060
v -0.931117 0.654356 2.352296
v -0.931117 0.235592 2.352296
v -0.512353 0.654356 2.352296
v -0.512353 0.235592 2.352296
v -0.512353 0.654356 2.771060
v -0.512353 0.235592 2.771060
vn -1.0000 -0.0000 0.0000
vn 0.0000 0.0000 -1.0000
vn 1.0000 0.0000 0.0000
vn 0.0000 0.0000 1.0000
vn 0.0000 -1.0000 -0.0000
vn 0.0000 1.0000 0.0000
usemtl Material.008
s 1
f 182//139 183//139 184//139 185//139
f 185//140 184//140 186//140 187//140
f 187//141 186//141 188//141 189//141
f 189//142 188//142 183//142 182//142
f 185//143 187//143 189//143 182//143
f 186//144 184//144 183//144 188//144
o Cube_Cube.003_Cube_Cube.004
v 2.118226 1.286395 -0.438054
v 2.118226 1.705159 -0.438054
v 2.118226 1.705159 -0.856818
v 2.118226 1.286395 -0.856818
v 2.536990 1.705159 -0.856818
v 2.536990 1.286395 -0.856818
v 2.536990 1.705159 -0.438054
v 2.536990 1.286395 -0.438054
vn -1.0000 0.0000 0.0000
vn 0.0000 0.0000 -1.0000
vn 1.0000 0.0000 0.0000
vn 0.0000 -0.0000 1.0000
vn 0.0000 -1.0000 0.0000
vn 0.0000 1.0000 0.0000
usemtl Material.009
s 1
f 190//145 191//145 192//145 193//145
f 193//146 192//146 194//146 195//146
f 195//147 194//147 196//147 197//147
f 197//148 196//148 191//148 190//148
f 193//149 195//149 197//149 190//149
f 194//150 192//150 191//150 196//150
