# Blender v2.78 (sub 0) OBJ File: 'mirror.blend'
# www.blender.org
mtllib mirror.mtl
o Cone
v 1.067010 0.265564 -1.479632
v 1.128727 0.265564 -1.473554
v 1.188073 0.265564 -1.455552
v 1.242766 0.265564 -1.426318
v 1.290704 0.265564 -1.386975
v 1.330047 0.265564 -1.339036
v 1.359281 0.265564 -1.284344
v 1.377283 0.265564 -1.224998
v 1.383361 0.265564 -1.163281
v 1.067010 0.898266 -1.163281
v 1.377283 0.265564 -1.101564
v 1.359281 0.265564 -1.042219
v 1.330047 0.265564 -0.987526
v 1.290704 0.265564 -0.939587
v 1.242765 0.265564 -0.900245
v 1.188072 0.265564 -0.871011
v 1.128727 0.265564 -0.853009
v 1.067010 0.265564 -0.846930
v 1.005293 0.265564 -0.853009
v 0.945948 0.265564 -0.871011
v 0.891255 0.265564 -0.900245
v 0.843316 0.265564 -0.939587
v 0.803974 0.265564 -0.987526
v 0.774740 0.265564 -1.042219
v 0.756737 0.265564 -1.101564
v 0.750659 0.265564 -1.163282
v 0.756738 0.265564 -1.224999
v 0.774740 0.265564 -1.284344
v 0.803974 0.265564 -1.339037
v 0.843316 0.265564 -1.386976
v 0.891255 0.265564 -1.426318
v 0.945948 0.265564 -1.455552
v 1.005294 0.265564 -1.473554
vn 0.0878 0.4455 -0.8910
vn 0.2599 0.4455 -0.8567
vn 0.4220 0.4455 -0.7896
vn 0.5680 0.4455 -0.6921
vn 0.6921 0.4455 -0.5680
vn 0.7896 0.4455 -0.4220
vn 0.8567 0.4455 -0.2599
vn 0.8910 0.4455 -0.0878
vn 0.8910 0.4455 0.0878
vn 0.8567 0.4455 0.2599
vn 0.7896 0.4455 0.4220
vn 0.6921 0.4455 0.5680
vn 0.5680 0.4455 0.6921
vn 0.4220 0.4455 0.7896
vn 0.2599 0.4455 0.8567
vn 0.0878 0.4455 0.8910
vn -0.0878 0.4455 0.8910
vn -0.2599 0.4455 0.8567
vn -0.4220 0.4455 0.7896
vn -0.5680 0.4455 0.6921
vn -0.6921 0.4455 0.5680
vn -0.7896 0.4455 0.4220
vn -0.8567 0.4455 0.2599
vn -0.8910 0.4455 0.0878
vn -0.8910 0.4455 -0.0878
vn -0.8567 0.4455 -0.2599
vn -0.7896 0.4455 -0.4220
vn -0.6921 0.4455 -0.5680
vn -0.5680 0.4455 -0.6921
vn -0.4220 0.4455 -0.7896
vn -0.2599 0.4455 -0.8567
vn -0.0878 0.4455 -0.8910
vn 0.0000 -1.0000 -0.0000
usemtl Material
s off
f 1//1 10//1 2//1
f 2//2 10//2 3//2
f 3//3 10//3 4//3
f 4//4 10//4 5//4
f 5//5 10//5 6//5
f 6//6 10//6 7//6
f 7//7 10//7 8//7
f 8//8 10//8 9//8
f 9//9 10//9 11//9
f 11//10 10//10 12//10
f 12//11 10//11 13//11
f 13//12 10//12 14//12
f 14//13 10//13 15//13
f 15//14 10//14 16//14
f 16//15 10//15 17//15
f 17//16 10//16 18//16
f 18//17 10//17 19//17
f 19//18 10//18 20//18
f 20//19 10//19 21//19
f 21//20 10//20 22//20
f 22//21 10//21 23//21
f 23//22 10//22 24//22
f 24//23 10//23 25//23
f 25//24 10//24 26//24
f 26//25 10//25 27//25
f 27//26 10//26 28//26
f 28//27 10//27 29//27
f 29//28 10//28 30//28
f 30//29 10//29 31//29
f 31//30 10//30 32//30
f 32//31 10//31 33//31
f 33//32 10//32 1//32
f 1//33 2//33 3//33 4//33 5//33 6//33 7//33 8//33 9//33 11//33 12//33 13//33 14//33 15//33 16//33 17//33 18//33 19//33 20//33 21//33 22//33 23//33 24//33 25//33 26//33 27//33 28//33 29//33 30//33 31//33 32//33 33//33
o Cube_Cube.001
v 0.077761 -0.032631 0.481868
v 0.077761 0.386133 0.481868
v 0.077761 -0.032631 0.063104
v 0.077761 0.386133 0.063104
v 0.496525 -0.032631 0.481868
v 0.496525 0.386133 0.481868
v 0.496525 -0.032631 0.063104
v 0.496525 0.386133 0.063104
vn -1.0000 0.0000 0.0000
vn 0.0000 0.0000 -1.0000
vn 1.0000 0.0000 0.0000
vn 0.0000 0.0000 1.0000
vn 0.0000 -1.0000 0.0000
vn 0.0000 1.0000 0.0000
usemtl Material.003
s off
f 34//34 35//34 37//34 36//34
f 36//35 37//35 41//35 40//35
f 40//36 41//36 39//36 38//36
f 38//37 39//37 35//37 34//37
f 36//38 40//38 38//38 34//38
f 41//39 37//39 35//39 39//39
o Plane.001
v -3.621245 -0.096122 -2.004407
v 3.577978 -0.096122 -2.004407
v -3.621245 1.903878 -2.004407
v 3.577978 1.903878 -2.004407
vn 0.0000 0.0000 1.0000
usemtl MirrorMat
s off
f 42//40 43//40 45//40 44//40
o Plane
v -3.544861 0.000000 3.544861
v 3.544861 0.000000 3.544861
v -3.544861 0.000000 -3.544861
v 3.544861 0.000000 -3.544861
vn 0.0000 1.0000 0.0000
usemtl Material.001
s off
f 46//41 47//41 49//41 48//41
o Plane.002
v -0.897598 -0.096122 3.616409
v -0.897598 -0.096122 -3.582814
v -0.897598 1.903878 3.616409
v -0.897598 1.903878 -3.582814
vn 1.0000 -0.0000 -0.0000
usemtl MirrorMat
s off
f 50//42 51//42 53//42 52//42
